<svg t="1693351382756" class="icon" viewBox="0 0 1024 1024" version="1.1" xmlns="http://www.w3.org/2000/svg" p-id="4559" width="50" height="50"><path d="M1022.139733 847.7184l-53.188266-229.5552a195.272533 195.272533 0 0 0-51.908267-93.474133 189.095253 189.095253 0 0 0-74.026667-46.199467l-65.3056-28.3392-3.831466-1.698133-122.939734-53.0176a170.386773 170.386773 0 0 0 30.839467-96.682667v-46.4128c25.429333-9.002667 42.461867-33.041067 42.530133-60.040533v-74.5216c0-29.397333-23.799467-53.2224-53.162666-53.239467-2.824533 0.008533-5.5296-1.109333-7.534934-3.106133a10.66496 10.66496 0 0 1-3.1232-7.534934c0-29.397333-23.799467-53.2224-53.162666-53.239466H352.0768a53.128533 53.128533 0 0 0-37.6064 15.598933 53.259093 53.259093 0 0 0-15.573333 37.649067v138.402133c0.0768 26.999467 17.1008 51.0464 42.530133 60.040533v46.4128c0.059733 34.909867 10.8288 68.9664 30.865067 97.544534L249.770667 449.314133c-1.5616 0.469333-3.063467 1.117867-4.48 1.928534l-63.812267 27.460266a191.52896 191.52896 0 0 0-75.716267 46.848A195.2768 195.2768 0 0 0 54.272 618.171733l-53.179733 229.546667c-0.221867 1.5616-0.221867 3.140267 0 4.693333 0 70.417067 56.917333 127.530667 127.2064 127.761067v-0.162133h772.753066c67.447467-3.413333 121.079467-59.2384 121.079467-127.598934 0.2304-1.5616 0.2304-3.140267 0.008533-4.693333zM421.418667 256.1792c45.952 0.162133 90.965333-13.098667 129.536-38.101333a164.571307 164.571307 0 0 0 88.32 38.101333v42.581333c0 70.562133-57.1392 127.7696-127.624534 127.7696-70.493867 0-127.633067-57.207467-127.633066-127.7696v-42.581333h37.4016z m155.2896 200.1664l-37.248 97.937067h-55.714134l-35.968-97.937067a169.992533 169.992533 0 0 0 128.930134 0z m168.891733 438.647467H277.614933V596.881067h467.985067v298.112z" fill="#172C54" p-id="4560"></path><path d="M441.608533 688.247467a21.259947 21.259947 0 0 0-15.0784-6.280534c-5.666133 0-11.093333 2.261333-15.086933 6.280534l-42.555733 42.555733a21.28896 21.28896 0 0 0-6.2976 15.121067c0 5.674667 2.261333 11.118933 6.2976 15.121066l42.530133 42.5984a21.285547 21.285547 0 0 0 15.104 6.2976c5.674667 0 11.1104-2.269867 15.104-6.2976a21.316267 21.316267 0 0 0 6.289067-15.121066c0-5.674667-2.261333-11.118933-6.289067-15.121067l-27.665067-27.477333 27.665067-27.460267a21.316267 21.316267 0 0 0 6.289067-15.121067c0-5.674667-2.261333-11.118933-6.289067-15.121066l-0.017067 0.0256z m139.997867 0a21.312 21.312 0 0 0-6.272 15.095466c0 5.666133 2.261333 11.101867 6.272 15.095467l27.630933 27.485867-27.630933 27.477333a21.3248 21.3248 0 0 0-6.2976 15.121067c0 5.674667 2.269867 11.118933 6.2976 15.121066a21.257387 21.257387 0 0 0 15.095467 6.289067c5.666133 0 11.101867-2.261333 15.095466-6.289067l42.530134-42.5984a21.3248 21.3248 0 0 0 6.2976-15.121066c0-5.674667-2.269867-11.118933-6.2976-15.121067l-42.513067-42.555733a21.27104 21.27104 0 0 0-15.104-6.2976c-5.674667 0-11.1104 2.261333-15.104 6.2976z m-41.9072-26.436267a21.26848 21.26848 0 0 0-16.3072 1.083733 21.290667 21.290667 0 0 0-10.734933 12.3392l-42.530134 127.761067a21.318827 21.318827 0 0 0 0.605867 16.9728 21.288107 21.288107 0 0 0 12.808533 11.136c2.2528 0.298667 4.548267 0.298667 6.792534 0 9.130667 0.008533 17.262933-5.8112 20.189866-14.472533l42.555734-127.761067a21.32736 21.32736 0 0 0-1.0752-16.315733 21.269333 21.269333 0 0 0-12.305067-10.743467z m0 0" fill="#172C54" p-id="4561"></path></svg>